<?xml version="1.0" standalone="no"?>
<!DOCTYPE svg PUBLIC "-//W3C//DTD SVG 1.0//EN" "http://www.w3.org/TR/2001/REC-SVG-20010904/DTD/svg10.dtd">
<svg xmlns="http://www.w3.org/2000/svg" xmlns:xlink="http://www.w3.org/1999/xlink" id="body_1" width="150" height="112">

<g transform="matrix(0.14648438 0 0 0.14583334 0 0)">
	<g transform="matrix(2.7425046 0 0 2.7425046 128 -0)">
	</g>
    <path transform="matrix(2.7425046 0 0 2.7425046 128 -0)"  d="M140.018 0C 217.349 0 280.032 62.691 280.032 140.014C 280.032 217.345 217.35 280.036 140.018 280.036C 62.695007 280.036 0.0039978027 217.345 0.0039978027 140.014C 0.004 62.691 62.695 0 140.018 0z" stroke="none" fill="#EFC75E" fill-rule="nonzero" />
	<g transform="matrix(2.7425046 0 0 2.7425046 128 -0)">
	</g>
    <path transform="matrix(2.7425046 0 0 2.7425046 128 -0)"  d="M116.303 116.071C 108.095 121.803 97.567 124.139 87.128006 121.357C 68.384 116.352005 57.261005 97.152 62.284004 78.478C 63.360004 74.495995 65.189 70.951996 67.412 67.74899C 60.875004 72.298996 55.765003 78.95 53.542004 87.228C 48.519005 105.90199 59.641003 125.102 78.386 130.107C 93.14 134.037 108.104 127.92 116.303 116.071zM227.527 105.019C 203.357 105.019 183.773 85.425995 183.773 61.264996C 183.773 51.419994 187.142 42.432995 192.638 35.116997C 181.997 43.097996 175.023 55.698997 175.023 70.015C 175.023 94.185 194.607 113.769 218.777 113.769C 233.10199 113.769 245.68599 106.795 253.66699 96.161995C 246.367 101.65 237.371 105.019 227.527 105.019zM100.455 209.487C 91.127 206.984 85.587006 197.393 88.081 188.047L88.081 188.047L89.061005 185.457C 84.449005 187.54 80.739006 191.521 79.33 196.798C 76.836 206.144 82.375 215.735 91.704 218.238C 100.122 220.496 108.707 216.182 112.155 208.46301C 108.602 210.073 104.525 210.581 100.455 209.487zM185.689 200.342C 171.679 196.579 163.366 182.193 167.12799 168.174C 167.80199 165.636 168.93098 163.37 170.243 161.243C 164.599 164.62999 160.206 170.081 158.377 176.925C 154.614 190.944 162.936 205.33 176.938 209.093C 188.40201 212.16501 200.032 207.072 205.95601 197.463C 200.075 200.99 192.847 202.25 185.689 200.342z" stroke="none" fill="#C89147" fill-rule="nonzero" />
	<g transform="matrix(2.7425046 0 0 2.7425046 128 -0)">
	</g>
    <path transform="matrix(2.7425046 0 0 2.7425046 128 -0)"  d="M157.52 262.534C 80.19701 262.534 17.505997 199.84299 17.505997 122.51199C 17.505997 88.30499 29.809998 56.993996 50.181995 32.675995C 19.528 58.359 0.004 96.889 0.004 140.014C 0.004 217.345 62.695004 280.036 140.018 280.036C 183.142 280.036 221.663 260.522 247.356 229.867C 223.037 250.239 191.736 262.534 157.52 262.534z" stroke="none" fill="#D7B354" fill-rule="nonzero" />
	<g transform="matrix(2.7425046 0 0 2.7425046 128 -0)">
	</g>
    <path transform="matrix(2.7425046 0 0 2.7425046 128 -0)"  d="M262.337 71.958C 252.317 54.001 238.438 38.547 221.856 26.567001L221.856 26.567001L218.776 26.252C 194.606 26.252 175.022 45.845 175.022 70.006004C 175.022 94.176 194.606 113.76001 218.776 113.76001C 242.281 113.77 261.296 95.201 262.337 71.958z" stroke="none" fill="#DFA14F" fill-rule="nonzero" />
	<g transform="matrix(2.7425046 0 0 2.7425046 128 -0)">
	</g>
    <path transform="matrix(2.7425046 0 0 2.7425046 128 -0)"  d="M209.99 183.724C 209.99002 176.47223 207.42613 170.28246 202.29834 165.15466C 197.17056 160.02689 190.98077 157.463 183.729 157.463C 176.47723 157.463 170.28746 160.02689 165.15967 165.15466C 160.03189 170.28246 157.468 176.47223 157.468 183.724C 157.468 190.97577 160.03189 197.16556 165.15967 202.29333C 170.28746 207.42111 176.47723 209.98502 183.729 209.985C 190.98077 209.98502 197.17056 207.42111 202.29834 202.29333C 207.42613 197.16556 209.99002 190.97577 209.99 183.724" stroke="none" fill="#DFA14F" fill-rule="nonzero" />
	<g transform="matrix(2.7425046 0 0 2.7425046 128 -0)">
	</g>
    <path transform="matrix(2.7425046 0 0 2.7425046 128 -0)"  d="M96.579 62.472C 77.826004 57.467 58.565002 68.545 53.542004 87.228C 48.519005 105.90199 59.641003 125.102 78.386 130.107C 97.139 135.10399 116.408005 124.024994 121.431 105.351C 126.454 86.677 115.323 67.478 96.579 62.472z" stroke="none" fill="#DFA14F" fill-rule="nonzero" />
	<g transform="matrix(2.7425046 0 0 2.7425046 128 -0)">
	</g>
    <path transform="matrix(2.7425046 0 0 2.7425046 128 -0)"  d="M113.74 201.331C 113.740005 196.49796 112.031265 192.3727 108.613785 188.95522C 105.19631 185.53773 101.071045 183.829 96.238 183.829C 91.40495 183.829 87.27969 185.53773 83.86221 188.95522C 80.44474 192.3727 78.73601 196.49796 78.736 201.331C 78.73601 206.16405 80.44474 210.2893 83.86221 213.70677C 87.27969 217.12427 91.40495 218.83301 96.238 218.833C 101.071045 218.83301 105.19631 217.12427 108.613785 213.70677C 112.031265 210.2893 113.740005 206.16405 113.74 201.331" stroke="none" fill="#DFA14F" fill-rule="nonzero" />
</g>
</svg>