<?xml version="1.0" standalone="no"?>
<!DOCTYPE svg PUBLIC "-//W3C//DTD SVG 1.0//EN" "http://www.w3.org/TR/2001/REC-SVG-20010904/DTD/svg10.dtd">
<svg xmlns="http://www.w3.org/2000/svg" xmlns:xlink="http://www.w3.org/1999/xlink" id="body_1" width="150" height="150">

<g transform="matrix(0.39370078 0 0 0.39370078 0 0)">
	<g transform="matrix(1 0 0 1 -167 -296)">
	</g>
    <path transform="matrix(1 0 0 1 -167 -296)"  d="M441.85193 522.3539L427.7099 536.4959L367.60712 476.39313L381.7491 462.25113L441.85193 522.3539z" stroke="none" fill="#06384A" fill-rule="nonzero" />
	<g transform="matrix(1 0 0 1 -167 -296)">
	</g>
    <path transform="matrix(1 0 0 1 -167 -296)"  d="M381.74823 462.25092L367.6062 476.3929L307.50342 416.2901L321.6454 402.1481L381.74823 462.25092z" stroke="none" fill="#084B63" fill-rule="nonzero" />
	<g transform="matrix(1 0 0 1 -0 -0)">
	</g>
    <path transform="matrix(1 0 0 1 -0 -0)"  d="M55.65 42.508L34.437 63.721L78.631 107.915L96.308 104.379L99.844 86.702L79.515 52.23L55.65 42.508" stroke="none" fill="#419EBE" fill-rule="nonzero" />
	<g transform="matrix(1 0 0 1 -0 -0)">
	</g>
    <path transform="matrix(1 0 0 1 -0 -0)"  d="M98.076 0.081L76.863 21.294L86.586 45.159L121.057 65.489L138.735 61.953L142.27 44.275L98.076 0.081" stroke="none" fill="#419EBE" fill-rule="nonzero" />
	<g transform="matrix(1 0 0 1 -0 -0)">
	</g>
    <path transform="matrix(1 0 0 1 -0 -0)"  d="M76.863 21.294L55.65 42.508L99.844 86.702L117.522 83.166L121.057 65.489L76.863 21.294" stroke="none" fill="#82C8DB" fill-rule="nonzero" />
	<g transform="matrix(1 0 0 1 -0 -0)">
	</g>
    <path transform="matrix(1 0 0 1 -0 -0)"  d="M144.038 130.896L127.244 99.96L99.844 86.702L78.631 107.915L122.825 152.109L144.038 130.896" stroke="none" fill="#146A8A" fill-rule="nonzero" />
	<g transform="matrix(1 0 0 1 -0 -0)">
	</g>
    <path transform="matrix(1 0 0 1 -0 -0)"  d="M186.464 88.47L142.27 44.275L121.057 65.489L134.315 92.889L165.251 109.683L186.464 88.47" stroke="none" fill="#146A8A" fill-rule="nonzero" />
	<g transform="matrix(1 0 0 1 -167 -296)">
	</g>
    <path transform="matrix(1 0 0 1 -167 -296)"  d="M311.0381 426.8958L266.84503 382.70276L288.05804 361.48975L332.2511 405.6828L311.0381 426.8958z" stroke="none" fill="#419EBE" fill-rule="nonzero" />
	<g transform="matrix(1 0 0 1 -0 -0)">
	</g>
    <path transform="matrix(1 0 0 1 -0 -0)"  d="M250.104 236.962L228.891 258.175L273.085 302.369L290.763 298.834L294.298 281.156L281.04 253.756L250.104 236.962" stroke="none" fill="#146A8A" fill-rule="nonzero" />
	<g transform="matrix(1 0 0 1 -0 -0)">
	</g>
    <path transform="matrix(1 0 0 1 -0 -0)"  d="M292.53 194.536L271.317 215.749L288.111 246.685L315.511 259.943L333.189 256.407L336.725 238.73L292.53 194.536" stroke="none" fill="#146A8A" fill-rule="nonzero" />
	<g transform="matrix(1 0 0 1 -0 -0)">
	</g>
    <path transform="matrix(1 0 0 1 -0 -0)"  d="M271.317 215.749L250.104 236.962L294.298 281.156L311.976 277.621L315.511 259.943L271.317 215.749" stroke="none" fill="#2089B0" fill-rule="nonzero" />
	<g transform="matrix(1 0 0 1 -0 -0)">
	</g>
    <path transform="matrix(1 0 0 1 -0 -0)"  d="M338.492 325.35L328.77 301.485L294.298 281.156L273.085 302.369L317.279 346.564L338.492 325.35" stroke="none" fill="#06384A" fill-rule="nonzero" />
	<g transform="matrix(1 0 0 1 -0 -0)">
	</g>
    <path transform="matrix(1 0 0 1 -0 -0)"  d="M380.919 282.924L336.725 238.73L315.511 259.943L335.841 294.414L359.706 304.137L380.919 282.924" stroke="none" fill="#06384A" fill-rule="nonzero" />
	<g transform="matrix(1 0 0 1 -167 -296)">
	</g>
    <path transform="matrix(1 0 0 1 -167 -296)"  d="M505.4917 621.3501L461.29865 577.15704L482.51166 555.94403L526.7047 600.1371L505.4917 621.3501z" stroke="none" fill="#146A8A" fill-rule="nonzero" />
	<g transform="matrix(1 0 0 1 -167 -296)">
	</g>
    <path transform="matrix(1 0 0 1 -167 -296)"  d="M339.32175 525.8907L306.79517 558.4173L285.58215 537.2043L318.10876 504.67767L339.32175 525.8907z" stroke="none" fill="#06384A" fill-rule="nonzero" />
	<g transform="matrix(1 0 0 1 -0 -0)">
	</g>
    <path transform="matrix(1 0 0 1 -0 -0)"  d="M342.028 60.185L320.815 38.972L292.53 38.972L310.208 70.792L342.028 88.47L342.028 60.185" stroke="none" fill="#06384A" fill-rule="nonzero" />
	<g transform="matrix(1 0 0 1 -0 -0)">
	</g>
    <path transform="matrix(1 0 0 1 -0 -0)"  d="M292.53 38.972L257.175 74.327L281.924 99.076L313.744 81.398L317.279 63.721L292.53 38.972" stroke="none" fill="#62B3CD" fill-rule="nonzero" />
	<g transform="matrix(1 0 0 1 -167 -296)">
	</g>
    <path transform="matrix(1 0 0 1 -167 -296)"  d="M473.67224 419.82407L448.92377 395.07556L484.27875 359.72055L509.02725 384.46906L473.67224 419.82407z" stroke="none" fill="#2089B0" fill-rule="nonzero" />
	<g transform="matrix(1 0 0 1 -0 -0)">
	</g>
    <path transform="matrix(1 0 0 1 -0 -0)"  d="M250.104 53.114L122.825 180.393L161.716 219.284L225.355 169.787L288.995 92.005L250.104 53.114" stroke="none" fill="#82C8DB" fill-rule="nonzero" />
	<g transform="matrix(1 0 0 1 -167 -296)">
	</g>
    <path transform="matrix(1 0 0 1 -167 -296)"  d="M367.60776 554.1733L328.71796 515.28345L455.99457 388.0069L494.88434 426.89667L367.60776 554.1733z" stroke="none" fill="#419EBE" fill-rule="nonzero" />
	<g transform="matrix(1 0 0 1 -167 -296)">
	</g>
    <path transform="matrix(1 0 0 1 -167 -296)"  d="M243.3549 613.7711L222.1419 634.98413L207.99991 620.84216L229.21289 599.62915L243.3549 613.7711z" stroke="none" fill="#06384A" fill-rule="nonzero" />
	<g transform="matrix(1 0 0 1 -0 -0)">
	</g>
    <path transform="matrix(1 0 0 1 -0 -0)"  d="M71.468 298.743L88.445 266.523L70.751 257.2L46.902 302.46L62.721 318.279L76.863 318.279L76.863 304.137L71.468 298.743" stroke="none" fill="#146A8A" fill-rule="nonzero" />
	<g transform="matrix(1 0 0 1 -0 -0)">
	</g>
    <path transform="matrix(1 0 0 1 -0 -0)"  d="M123.8 310.249L114.477 292.555L82.257 309.532L76.863 304.137L62.721 318.279L78.54 334.098L123.8 310.249" stroke="none" fill="#06384A" fill-rule="nonzero" />
	<g transform="matrix(1 0 0 1 -0 -0)">
	</g>
    <path transform="matrix(1 0 0 1 -0 -0)"  d="M0.69 196.462L92.614 288.386L126.202 268.941L145.647 235.353C 106.366 196.072 50.742 183.109 0.69 196.462z" stroke="none" fill="#FFFFFF" fill-rule="nonzero" />
	<g transform="matrix(1 0 0 1 -0 -0)">
	</g>
    <path transform="matrix(1 0 0 1 -0 -0)"  d="M145.647 235.353L92.614 288.386L184.538 380.31C 197.891 330.258 184.928 274.634 145.647 235.353z" stroke="none" fill="#A3DDE9" fill-rule="nonzero" />
</g>
</svg>