<?xml version="1.0" standalone="no"?>
<!DOCTYPE svg PUBLIC "-//W3C//DTD SVG 1.0//EN" "http://www.w3.org/TR/2001/REC-SVG-20010904/DTD/svg10.dtd">
<svg xmlns="http://www.w3.org/2000/svg" xmlns:xlink="http://www.w3.org/1999/xlink" id="body_1" width="150" height="112">

<g transform="matrix(0.14648438 0 0 0.14583334 0 0)">
	<g transform="matrix(1.4999971 0 0 1.4999971 128 -0)">
	</g>
    <path transform="matrix(1.4999971 0 0 1.4999971 128 -0)"  d="M279.175 200.037C 279.19 200.06601 279.19897 200.098 279.21298 200.128C 279.242 200.08 279.234 200.048 279.175 200.037z" stroke="none" fill="none" />
	<g transform="matrix(1.4999971 0 0 1.4999971 128 -0)">
	</g>
    <path transform="matrix(1.4999971 0 0 1.4999971 128 -0)"  d="M316.305 136.002C 319.106 131.171 323.132 127.14 327.958 124.331C 326.15802 39.954002 262.719 2.6279984 259.978 1.0599976C 258.743 0.354 257.372 0 256.001 0L256.001 0L256.001 136.002L316.305 136.002z" stroke="none" fill="#FF4F19" fill-rule="nonzero" />
	<g transform="matrix(1.4999971 0 0 1.4999971 128 -0)">
	</g>
    <path transform="matrix(1.4999971 0 0 1.4999971 128 -0)"  d="M195.696 136.002L256 136.002L256 0C 254.629 0 253.258 0.354 252.023 1.061C 249.28099 2.628 185.84299 39.955 184.043 124.332C 188.87 127.14 192.895 131.171 195.696 136.002z" stroke="none" fill="#E5001E" fill-rule="nonzero" />
	<g transform="matrix(1.4999971 0 0 1.4999971 128 -0)">
	</g>
    <path transform="matrix(1.4999971 0 0 1.4999971 128 -0)"  d="M256.001 152.002L256.001 136.002L195.697 136.002C 198.429 140.712 200.001 146.175 200.001 152.002L200.001 152.002L200.001 168.002L200.001 260.71C 200.139 260.569 200.268 260.423 200.40701 260.284L200.40701 260.284L216.001 244.69L216.001 192.002C 216.001 169.947 233.946 152.002 256.001 152.002z" stroke="none" fill="#5C546A" fill-rule="nonzero" />
	<g transform="matrix(1.4999971 0 0 1.4999971 128 -0)">
	</g>
    <path transform="matrix(1.4999971 0 0 1.4999971 128 -0)"  d="M344.001 340.673C 344.13602 340.811 344.263 340.95502 344.39902 341.092L344.39902 341.092L375.59402 372.28302C 375.73303 372.42203 375.86304 372.56903 376.00003 372.709L376.00003 372.709L376.00003 168.002L344.00003 168.002L344.00003 340.673L344.001 340.673z" stroke="none" fill="#888693" fill-rule="nonzero" />
	<g transform="matrix(1.4999971 0 0 1.4999971 128 -0)">
	</g>
    <path transform="matrix(1.4999971 0 0 1.4999971 128 -0)"  d="M376.001 168.002L376.001 152.002C 376.001 134.357 361.64902 120.002 344.001 120.002L344.001 120.002L344.001 168.002L376.001 168.002z" stroke="none" fill="#B6B8BE" fill-rule="nonzero" />
	<g transform="matrix(1.4999971 0 0 1.4999971 128 -0)">
	</g>
    <path transform="matrix(1.4999971 0 0 1.4999971 128 -0)"  d="M168.001 168.002L168.001 340.673C 178.31401 330.143 184.001 316.258 184.001 301.49402L184.001 301.49402L184.001 299.885C 184.001 285.117 189.686 271.23502 200.001 260.71002L200.001 260.71002L200.001 168.00201L168.001 168.00201L168.001 168.002z" stroke="none" fill="#888693" fill-rule="nonzero" />
	<g transform="matrix(1.4999971 0 0 1.4999971 128 -0)">
	</g>
    <path transform="matrix(1.4999971 0 0 1.4999971 128 -0)"  d="M167.602 341.092C 167.739 340.95502 167.865 340.811 168 340.673L168 340.673L168 168.002L136 168.002L136 372.71C 136.138 372.569 136.267 372.423 136.406 372.284L136.406 372.284L167.602 341.092z" stroke="none" fill="#5C546A" fill-rule="nonzero" />
	<g transform="matrix(1.4999971 0 0 1.4999971 128 -0)">
	</g>
    <path transform="matrix(1.4999971 0 0 1.4999971 128 -0)"  d="M312.001 168.002L312.001 260.71C 322.316 271.235 328.001 285.117 328.001 299.88498L328.001 299.88498L328.001 301.494C 328.001 316.258 333.689 330.14297 344.001 340.67297L344.001 340.67297L344.001 168.002L312.001 168.002z" stroke="none" fill="#5C546A" fill-rule="nonzero" />
	<g transform="matrix(1.4999971 0 0 1.4999971 128 -0)">
	</g>
    <path transform="matrix(1.4999971 0 0 1.4999971 128 -0)"  d="M200.001 168.002L200.001 152.002C 200.001 146.175 198.42801 140.712 195.697 136.002C 192.89601 131.171 188.87001 127.14 184.044 124.331C 179.324 121.584 173.84601 120.002 168.001 120.002L168.001 120.002L168.001 168.002L200.001 168.002z" stroke="none" fill="#B6B8BE" fill-rule="nonzero" />
	<g transform="matrix(1.4999971 0 0 1.4999971 128 -0)">
	</g>
    <path transform="matrix(1.4999971 0 0 1.4999971 128 -0)"  d="M144.241 489.941C 145.131 493.50302 148.331 496.001 152.002 496.001L152.002 496.001L183.998 496.001C 187.669 496.001 190.869 493.502 191.759 489.941L191.759 489.941L198.243 464.001L137.756 464.001L144.241 489.941z" stroke="none" fill="#5C546A" fill-rule="nonzero" />
	<g transform="matrix(1.4999971 0 0 1.4999971 128 -0)">
	</g>
    <path transform="matrix(1.4999971 0 0 1.4999971 128 -0)"  d="M320.24 489.941C 321.13 493.50302 324.33 496.001 328.00098 496.001L328.00098 496.001L359.99698 496.001C 363.66797 496.001 366.86798 493.502 367.75797 489.941L367.75797 489.941L374.24197 464.001L313.75497 464.001L320.24 489.941z" stroke="none" fill="#5C546A" fill-rule="nonzero" />
	<g transform="matrix(1.4999971 0 0 1.4999971 128 -0)">
	</g>
    <path transform="matrix(1.4999971 0 0 1.4999971 128 -0)"  d="M208.022 416.002C 208.34201 411.834 211.81801 408.61502 215.998 408.61502L215.998 408.61502L216 408.61502L216 244.689L200.406 260.283C 200.267 260.422 200.13701 260.569 200 260.70898C 189.685 271.23398 184 285.116 184 299.88397L184 299.88397L184 301.49298C 184 316.257 178.312 330.14197 168 340.672C 167.865 340.81 167.738 340.954 167.602 341.091L167.602 341.091L136.40701 372.282C 136.268 372.42102 136.13802 372.56802 136.001 372.708C 125.686005 383.233 120.00101 397.11502 120.00101 411.883L120.00101 411.883L120.00101 424L207.29001 424L208.022 416.002z" stroke="none" fill="#D5D9DE" fill-rule="nonzero" />
	<g transform="matrix(1.4999971 0 0 1.4999971 128 -0)">
	</g>
    <path transform="matrix(1.4999971 0 0 1.4999971 128 -0)"  d="M120.001 424.002L120.001 456.002C 120.001 460.419 123.579 464.002 128.001 464.002L128.001 464.002L137.75801 464.002L198.24501 464.002L203.63 464.002L207.291 424.002L120.001 424.002z" stroke="none" fill="#FF4F19" fill-rule="nonzero" />
	<g transform="matrix(1.4999971 0 0 1.4999971 128 -0)">
	</g>
    <path transform="matrix(1.4999971 0 0 1.4999971 128 -0)"  d="M376.001 372.709C 375.863 372.56802 375.734 372.42203 375.595 372.28302L375.595 372.28302L344.4 341.092C 344.263 340.95502 344.137 340.811 344.00198 340.673C 333.689 330.143 328.00198 316.258 328.00198 301.49402L328.00198 301.49402L328.00198 299.885C 328.00198 285.117 322.317 271.23502 312.00198 260.71002C 311.86398 260.56903 311.735 260.42303 311.59598 260.28403L311.59598 260.28403L296.00198 244.69003L296.00198 408.61603L296.004 408.61603C 300.184 408.61603 303.66 411.834 303.981 416.00302L303.981 416.00302L304.71298 424.00302L392.00198 424.00302L392.00198 411.88602C 392.001 397.117 386.316 383.234 376.001 372.709z" stroke="none" fill="#D5D9DE" fill-rule="nonzero" />
	<g transform="matrix(1.4999971 0 0 1.4999971 128 -0)">
	</g>
    <path transform="matrix(1.4999971 0 0 1.4999971 128 -0)"  d="M308.373 464.001L313.757 464.001L374.244 464.001L384.00198 464.001C 388.42398 464.001 392.00198 460.419 392.00198 456.001L392.00198 456.001L392.00198 424.001L304.71298 424.001L308.373 464.001z" stroke="none" fill="#FF4F19" fill-rule="nonzero" />
	<g transform="matrix(1.4999971 0 0 1.4999971 128 -0)">
	</g>
    <path transform="matrix(1.4999971 0 0 1.4999971 128 -0)"  d="M256.001 152.002C 233.94601 152.002 216.001 169.94699 216.001 192.002L216.001 192.002L216.001 244.69L216.001 408.616L232.001 408.616L232.001 248.002L232.001 203.78C 232.001 203.76 232.001 203.741 232.001 203.722C 231.979 202.438 232.266 201.173 232.82701 200.036C 233.61902 198.429 234.95302 197.07599 236.712 196.282C 249.321 190.602 262.681 190.602 275.29 196.282C 277.049 197.076 278.383 198.428 279.17502 200.036C 279.234 200.047 279.242 200.079 279.213 200.127C 279.74503 201.241 280.022 202.471 280 203.722C 280 203.741 280 203.76 280 203.78L280 203.78L280 248.002L280 408.615L296 408.615L296 244.689L296 192.00099C 296.001 169.947 278.055 152.002 256.001 152.002z" stroke="none" fill="#E3E6E9" fill-rule="nonzero" />
	<g transform="matrix(1.4999971 0 0 1.4999971 128 -0)">
	</g>
    <path transform="matrix(1.4999971 0 0 1.4999971 128 -0)"  d="M280.001 203.78C 279.976 204.813 279.749 205.859 279.298 206.861C 277.962 209.82199 275.048 211.57999 271.993 211.57999C 270.89902 211.57999 269.782 211.34999 268.712 210.86899C 260.27402 207.064 251.72801 207.064 243.29001 210.86899C 239.22 212.678 234.51701 210.88098 232.70401 206.861C 232.253 205.859 232.02602 204.81299 232.001 203.78L232.001 203.78L232.001 248.002L232.001 408.615L248.001 408.615L248.001 368.00198C 248.001 363.58398 251.58301 360.00198 256.001 360.00198C 260.419 360.00198 264.001 363.58398 264.001 368.00198L264.001 368.00198L264.001 408.615L280.001 408.615L280.001 248.002L280.001 203.78z" stroke="none" fill="#D5D9DE" fill-rule="nonzero" />
	<g transform="matrix(1.4999971 0 0 1.4999971 128 -0)">
	</g>
    <path transform="matrix(1.4999971 0 0 1.4999971 128 -0)"  d="M303.98 416.002C 303.659 411.834 300.18402 408.61502 296.00302 408.61502L296.00302 408.61502L296.001 408.61502L280.001 408.61502L264.001 408.61502L264.001 472.00104L309.105 472.00104L308.37302 464.00104L304.712 424.00104L303.98 416.002z" stroke="none" fill="#B6B8BE" fill-rule="nonzero" />
	<g transform="matrix(1.4999971 0 0 1.4999971 128 -0)">
	</g>
    <path transform="matrix(1.4999971 0 0 1.4999971 128 -0)"  d="M248.001 408.615L232.001 408.615L216.001 408.615L215.99901 408.615C 211.81902 408.615 208.343 411.83298 208.02301 416.00198L208.02301 416.00198L207.29102 424.00198L203.63002 464.00198L202.89803 472.00198L248.00203 472.00198L248.00203 408.615L248.001 408.615z" stroke="none" fill="#888693" fill-rule="nonzero" />
	<g transform="matrix(1.4999971 0 0 1.4999971 128 -0)">
	</g>
    <path transform="matrix(1.4999971 0 0 1.4999971 128 -0)"  d="M243.29 210.869C 251.728 207.06401 260.274 207.06401 268.712 210.869C 269.782 211.349 270.9 211.58 271.993 211.58C 275.048 211.58 277.962 209.822 279.298 206.86101C 279.749 205.85901 279.976 204.813 280.001 203.78001C 280.001 203.76001 280.001 203.74101 280.001 203.72202C 280.023 202.47101 279.746 201.24101 279.21402 200.12701C 279.2 200.09702 279.19003 200.06502 279.17603 200.03601C 278.38403 198.42902 277.05002 197.076 275.29102 196.28201C 262.682 190.60202 249.32202 190.60202 236.71301 196.28201C 234.95401 197.07602 233.62001 198.42801 232.82802 200.03601C 232.26802 201.173 231.98001 202.43701 232.00201 203.72202C 232.00201 203.74101 232.00201 203.76001 232.00201 203.78001C 232.02701 204.81302 232.25401 205.85901 232.70502 206.86101C 234.516 210.881 239.219 212.678 243.29 210.869z" stroke="none" fill="#5C546A" fill-rule="nonzero" />
	<g transform="matrix(1.4999971 0 0 1.4999971 128 -0)">
	</g>
    <path transform="matrix(1.4999971 0 0 1.4999971 128 -0)"  d="M316.305 136.002L256.00098 136.002L256.00098 152.002C 278.05597 152.002 296.00098 169.94699 296.00098 192.002L296.00098 192.002L296.00098 244.69L311.59497 260.284C 311.73398 260.423 311.86398 260.57 312.00098 260.71L312.00098 260.71L312.00098 168.00198L344.00098 168.00198L344.00098 120.00198C 338.15598 120.00198 332.67798 121.583984 327.95798 124.330986C 323.132 127.14 319.106 131.171 316.305 136.002z" stroke="none" fill="#888693" fill-rule="nonzero" />
	<g transform="matrix(1.4999971 0 0 1.4999971 128 -0)">
	</g>
    <path transform="matrix(1.4999971 0 0 1.4999971 128 -0)"  d="M168.001 120.002C 150.35301 120.002 136.001 134.357 136.001 152.002L136.001 152.002L136.001 168.002L168.001 168.002L168.001 120.002z" stroke="none" fill="#888693" fill-rule="nonzero" />
	<g transform="matrix(1.4999971 0 0 1.4999971 128 -0)">
	</g>
    <path transform="matrix(1.4999971 0 0 1.4999971 128 -0)"  d="M264.001 480.001C 264.001 484.419 260.419 488.001 256.001 488.001L256.001 488.001L256.001 512.001L304.001 512.001C 306.228 512.001 308.36002 511.07098 309.868 509.438C 311.384 507.801 312.14902 505.61 311.97702 503.387L311.97702 503.387L309.10403 472L264.00003 472L264.00003 480.001L264.001 480.001z" stroke="none" fill="#888693" fill-rule="nonzero" />
	<g transform="matrix(1.4999971 0 0 1.4999971 128 -0)">
	</g>
    <path transform="matrix(1.4999971 0 0 1.4999971 128 -0)"  d="M248.001 480.001L248.001 472.001L202.897 472.001L200.024 503.388C 199.852 505.611 200.618 507.802 202.133 509.439C 203.64099 511.072 205.774 512.002 208 512.002L208 512.002L256 512.002L256 488.002C 251.582 488.001 248.001 484.42 248.001 480.001z" stroke="none" fill="#5C546A" fill-rule="nonzero" />
	<g transform="matrix(1.4999971 0 0 1.4999971 128 -0)">
	</g>
    <path transform="matrix(1.4999971 0 0 1.4999971 128 -0)"  d="M256.001 360.002C 251.58301 360.002 248.001 363.584 248.001 368.002L248.001 368.002L248.001 408.61502L248.001 472.00104L248.001 480.00104C 248.001 484.41904 251.58301 488.00104 256.001 488.00104C 260.419 488.00104 264.001 484.41904 264.001 480.00104L264.001 480.00104L264.001 472.00104L264.001 408.61505L264.001 368.00204C 264.001 363.583 260.419 360.002 256.001 360.002z" stroke="none" fill="#E5001E" fill-rule="nonzero" />
</g>
</svg>